<?xml version="1.0" encoding="UTF-8" standalone="no"?>
<!DOCTYPE svg PUBLIC "-//W3C//DTD SVG 1.1//EN"
 "http://www.w3.org/Graphics/SVG/1.1/DTD/svg11.dtd">
<!-- Generated by graphviz version 2.38.0 (20140413.2041)
 -->
<!-- Title: unnamed Pages: 1 -->
<svg width="855pt" height="410pt"
 viewBox="0.00 0.00 855.00 410.00" xmlns="http://www.w3.org/2000/svg" xmlns:xlink="http://www.w3.org/1999/xlink">
<g id="graph0" class="graph" transform="scale(1 1) rotate(0) translate(4 406)">
<title>unnamed</title>
<polygon fill="white" stroke="none" points="-4,4 -4,-406 851,-406 851,4 -4,4"/>
<!-- Node0x555d28fb7078 -->
<g id="node1" class="node"><title>Node0x555d28fb7078</title>
<polygon fill="none" stroke="black" points="280.5,-365.5 280.5,-401.5 384.5,-401.5 384.5,-365.5 280.5,-365.5"/>
<text text-anchor="middle" x="332.5" y="-379.8" font-family="Times,serif" font-size="14.00">CompoundStmt</text>
</g>
<!-- Node0x555d28fb7040 -->
<g id="node2" class="node"><title>Node0x555d28fb7040</title>
<polygon fill="none" stroke="black" points="301.5,-292.5 301.5,-328.5 363.5,-328.5 363.5,-292.5 301.5,-292.5"/>
<text text-anchor="middle" x="332.5" y="-306.8" font-family="Times,serif" font-size="14.00">ForStmt</text>
</g>
<!-- Node0x555d28fb7078&#45;&gt;Node0x555d28fb7040 -->
<g id="edge1" class="edge"><title>Node0x555d28fb7078&#45;&gt;Node0x555d28fb7040</title>
<path fill="none" stroke="black" d="M332.5,-365.313C332.5,-357.289 332.5,-347.547 332.5,-338.569"/>
<polygon fill="black" stroke="black" points="336,-338.529 332.5,-328.529 329,-338.529 336,-338.529"/>
</g>
<!-- Node0x555d28fb6e10 -->
<g id="node3" class="node"><title>Node0x555d28fb6e10</title>
<polygon fill="none" stroke="black" points="74.5,-219.5 74.5,-255.5 142.5,-255.5 142.5,-219.5 74.5,-219.5"/>
<text text-anchor="middle" x="108.5" y="-233.8" font-family="Times,serif" font-size="14.00">DeclStmt</text>
</g>
<!-- Node0x555d28fb7040&#45;&gt;Node0x555d28fb6e10 -->
<g id="edge2" class="edge"><title>Node0x555d28fb7040&#45;&gt;Node0x555d28fb6e10</title>
<path fill="none" stroke="black" d="M301.354,-299.628C262.573,-287.336 196.099,-266.266 152.226,-252.359"/>
<polygon fill="black" stroke="black" points="153.271,-249.019 142.681,-249.334 151.156,-255.692 153.271,-249.019"/>
</g>
<!-- Node0x555d28fb6e88 -->
<g id="node4" class="node"><title>Node0x555d28fb6e88</title>
<polygon fill="none" stroke="black" points="223,-219.5 223,-255.5 324,-255.5 324,-219.5 223,-219.5"/>
<text text-anchor="middle" x="273.5" y="-233.8" font-family="Times,serif" font-size="14.00">BinaryOperator</text>
</g>
<!-- Node0x555d28fb7040&#45;&gt;Node0x555d28fb6e88 -->
<g id="edge3" class="edge"><title>Node0x555d28fb7040&#45;&gt;Node0x555d28fb6e88</title>
<path fill="none" stroke="black" d="M318.218,-292.313C310.971,-283.592 302.036,-272.84 294.064,-263.246"/>
<polygon fill="black" stroke="black" points="296.734,-260.983 287.651,-255.529 291.35,-265.457 296.734,-260.983"/>
</g>
<!-- Node0x555d28fb6ed8 -->
<g id="node5" class="node"><title>Node0x555d28fb6ed8</title>
<polygon fill="none" stroke="black" points="342.5,-219.5 342.5,-255.5 440.5,-255.5 440.5,-219.5 342.5,-219.5"/>
<text text-anchor="middle" x="391.5" y="-233.8" font-family="Times,serif" font-size="14.00">UnaryOperator</text>
</g>
<!-- Node0x555d28fb7040&#45;&gt;Node0x555d28fb6ed8 -->
<g id="edge4" class="edge"><title>Node0x555d28fb7040&#45;&gt;Node0x555d28fb6ed8</title>
<path fill="none" stroke="black" d="M346.782,-292.313C354.029,-283.592 362.964,-272.84 370.936,-263.246"/>
<polygon fill="black" stroke="black" points="373.65,-265.457 377.349,-255.529 368.266,-260.983 373.65,-265.457"/>
</g>
<!-- Node0x555d28fb7008 -->
<g id="node6" class="node"><title>Node0x555d28fb7008</title>
<polygon fill="none" stroke="black" points="530.5,-219.5 530.5,-255.5 584.5,-255.5 584.5,-219.5 530.5,-219.5"/>
<text text-anchor="middle" x="557.5" y="-233.8" font-family="Times,serif" font-size="14.00">IfStmt</text>
</g>
<!-- Node0x555d28fb7040&#45;&gt;Node0x555d28fb7008 -->
<g id="edge5" class="edge"><title>Node0x555d28fb7040&#45;&gt;Node0x555d28fb7008</title>
<path fill="none" stroke="black" d="M363.785,-299.628C404.898,-286.654 476.996,-263.904 520.688,-250.116"/>
<polygon fill="black" stroke="black" points="521.87,-253.414 530.353,-247.066 519.763,-246.738 521.87,-253.414"/>
</g>
<!-- Node0x555d28fb6df0 -->
<g id="node7" class="node"><title>Node0x555d28fb6df0</title>
<polygon fill="none" stroke="black" points="0,-146.5 0,-182.5 91,-182.5 91,-146.5 0,-146.5"/>
<text text-anchor="middle" x="45.5" y="-160.8" font-family="Times,serif" font-size="14.00">IntegerLiteral</text>
</g>
<!-- Node0x555d28fb6e10&#45;&gt;Node0x555d28fb6df0 -->
<g id="edge6" class="edge"><title>Node0x555d28fb6e10&#45;&gt;Node0x555d28fb6df0</title>
<path fill="none" stroke="black" d="M93.2495,-219.313C85.511,-210.592 75.9709,-199.84 67.4576,-190.246"/>
<polygon fill="black" stroke="black" points="69.8652,-187.686 60.6101,-182.529 64.6293,-192.332 69.8652,-187.686"/>
</g>
<!-- Node0x555d28fb6e70 -->
<g id="node8" class="node"><title>Node0x555d28fb6e70</title>
<polygon fill="none" stroke="black" points="109.5,-146.5 109.5,-182.5 219.5,-182.5 219.5,-146.5 109.5,-146.5"/>
<text text-anchor="middle" x="164.5" y="-160.8" font-family="Times,serif" font-size="14.00">ImplicitCastExpr</text>
</g>
<!-- Node0x555d28fb6e88&#45;&gt;Node0x555d28fb6e70 -->
<g id="edge7" class="edge"><title>Node0x555d28fb6e88&#45;&gt;Node0x555d28fb6e70</title>
<path fill="none" stroke="black" d="M247.392,-219.494C232.937,-210.079 214.787,-198.255 199.157,-188.075"/>
<polygon fill="black" stroke="black" points="201.062,-185.139 190.773,-182.614 197.242,-191.004 201.062,-185.139"/>
</g>
<!-- Node0x555d28fb6e50 -->
<g id="node9" class="node"><title>Node0x555d28fb6e50</title>
<polygon fill="none" stroke="black" points="238,-146.5 238,-182.5 329,-182.5 329,-146.5 238,-146.5"/>
<text text-anchor="middle" x="283.5" y="-160.8" font-family="Times,serif" font-size="14.00">IntegerLiteral</text>
</g>
<!-- Node0x555d28fb6e88&#45;&gt;Node0x555d28fb6e50 -->
<g id="edge8" class="edge"><title>Node0x555d28fb6e88&#45;&gt;Node0x555d28fb6e50</title>
<path fill="none" stroke="black" d="M275.921,-219.313C277.051,-211.289 278.423,-201.547 279.687,-192.569"/>
<polygon fill="black" stroke="black" points="283.173,-192.919 281.102,-182.529 276.241,-191.943 283.173,-192.919"/>
</g>
<!-- Node0x555d28fb6eb0 -->
<g id="node11" class="node"><title>Node0x555d28fb6eb0</title>
<polygon fill="none" stroke="black" points="347.5,-146.5 347.5,-182.5 435.5,-182.5 435.5,-146.5 347.5,-146.5"/>
<text text-anchor="middle" x="391.5" y="-160.8" font-family="Times,serif" font-size="14.00">DeclRefExpr</text>
</g>
<!-- Node0x555d28fb6ed8&#45;&gt;Node0x555d28fb6eb0 -->
<g id="edge10" class="edge"><title>Node0x555d28fb6ed8&#45;&gt;Node0x555d28fb6eb0</title>
<path fill="none" stroke="black" d="M391.5,-219.313C391.5,-211.289 391.5,-201.547 391.5,-192.569"/>
<polygon fill="black" stroke="black" points="395,-192.529 391.5,-182.529 388,-192.529 395,-192.529"/>
</g>
<!-- Node0x555d28fb6f58 -->
<g id="node12" class="node"><title>Node0x555d28fb6f58</title>
<polygon fill="none" stroke="black" points="454,-146.5 454,-182.5 555,-182.5 555,-146.5 454,-146.5"/>
<text text-anchor="middle" x="504.5" y="-160.8" font-family="Times,serif" font-size="14.00">BinaryOperator</text>
</g>
<!-- Node0x555d28fb7008&#45;&gt;Node0x555d28fb6f58 -->
<g id="edge11" class="edge"><title>Node0x555d28fb7008&#45;&gt;Node0x555d28fb6f58</title>
<path fill="none" stroke="black" d="M544.67,-219.313C538.29,-210.766 530.455,-200.269 523.403,-190.823"/>
<polygon fill="black" stroke="black" points="525.998,-188.449 517.212,-182.529 520.389,-192.636 525.998,-188.449"/>
</g>
<!-- Node0x555d28fb6f80 -->
<g id="node13" class="node"><title>Node0x555d28fb6f80</title>
<polygon fill="none" stroke="black" points="573,-146.5 573,-182.5 648,-182.5 648,-146.5 573,-146.5"/>
<text text-anchor="middle" x="610.5" y="-160.8" font-family="Times,serif" font-size="14.00">BreakStmt</text>
</g>
<!-- Node0x555d28fb7008&#45;&gt;Node0x555d28fb6f80 -->
<g id="edge12" class="edge"><title>Node0x555d28fb7008&#45;&gt;Node0x555d28fb6f80</title>
<path fill="none" stroke="black" d="M570.33,-219.313C576.71,-210.766 584.545,-200.269 591.597,-190.823"/>
<polygon fill="black" stroke="black" points="594.611,-192.636 597.788,-182.529 589.002,-188.449 594.611,-192.636"/>
</g>
<!-- Node0x555d28fb6fd0 -->
<g id="node14" class="node"><title>Node0x555d28fb6fd0</title>
<polygon fill="none" stroke="black" points="666,-146.5 666,-182.5 829,-182.5 829,-146.5 666,-146.5"/>
<text text-anchor="middle" x="747.5" y="-160.8" font-family="Times,serif" font-size="14.00">CompoundAssignOperator</text>
</g>
<!-- Node0x555d28fb7008&#45;&gt;Node0x555d28fb6fd0 -->
<g id="edge13" class="edge"><title>Node0x555d28fb7008&#45;&gt;Node0x555d28fb6fd0</title>
<path fill="none" stroke="black" d="M584.722,-226.327C612.673,-215.883 656.955,-199.335 692.281,-186.134"/>
<polygon fill="black" stroke="black" points="693.844,-189.287 701.986,-182.508 691.394,-182.73 693.844,-189.287"/>
</g>
<!-- Node0x555d28fb6e28 -->
<g id="node10" class="node"><title>Node0x555d28fb6e28</title>
<polygon fill="none" stroke="black" points="120.5,-73.5 120.5,-109.5 208.5,-109.5 208.5,-73.5 120.5,-73.5"/>
<text text-anchor="middle" x="164.5" y="-87.8" font-family="Times,serif" font-size="14.00">DeclRefExpr</text>
</g>
<!-- Node0x555d28fb6e70&#45;&gt;Node0x555d28fb6e28 -->
<g id="edge9" class="edge"><title>Node0x555d28fb6e70&#45;&gt;Node0x555d28fb6e28</title>
<path fill="none" stroke="black" d="M164.5,-146.313C164.5,-138.289 164.5,-128.547 164.5,-119.569"/>
<polygon fill="black" stroke="black" points="168,-119.529 164.5,-109.529 161,-119.529 168,-119.529"/>
</g>
<!-- Node0x555d28fb6f40 -->
<g id="node15" class="node"><title>Node0x555d28fb6f40</title>
<polygon fill="none" stroke="black" points="370.5,-73.5 370.5,-109.5 480.5,-109.5 480.5,-73.5 370.5,-73.5"/>
<text text-anchor="middle" x="425.5" y="-87.8" font-family="Times,serif" font-size="14.00">ImplicitCastExpr</text>
</g>
<!-- Node0x555d28fb6f58&#45;&gt;Node0x555d28fb6f40 -->
<g id="edge14" class="edge"><title>Node0x555d28fb6f58&#45;&gt;Node0x555d28fb6f40</title>
<path fill="none" stroke="black" d="M485.376,-146.313C475.381,-137.33 462.99,-126.193 452.077,-116.386"/>
<polygon fill="black" stroke="black" points="454.225,-113.61 444.448,-109.529 449.546,-118.816 454.225,-113.61"/>
</g>
<!-- Node0x555d28fb6f20 -->
<g id="node16" class="node"><title>Node0x555d28fb6f20</title>
<polygon fill="none" stroke="black" points="499,-73.5 499,-109.5 590,-109.5 590,-73.5 499,-73.5"/>
<text text-anchor="middle" x="544.5" y="-87.8" font-family="Times,serif" font-size="14.00">IntegerLiteral</text>
</g>
<!-- Node0x555d28fb6f58&#45;&gt;Node0x555d28fb6f20 -->
<g id="edge15" class="edge"><title>Node0x555d28fb6f58&#45;&gt;Node0x555d28fb6f20</title>
<path fill="none" stroke="black" d="M514.183,-146.313C518.9,-137.941 524.671,-127.697 529.907,-118.403"/>
<polygon fill="black" stroke="black" points="533.047,-119.959 534.906,-109.529 526.948,-116.523 533.047,-119.959"/>
</g>
<!-- Node0x555d28fb6f88 -->
<g id="node18" class="node"><title>Node0x555d28fb6f88</title>
<polygon fill="none" stroke="black" points="649.5,-73.5 649.5,-109.5 737.5,-109.5 737.5,-73.5 649.5,-73.5"/>
<text text-anchor="middle" x="693.5" y="-87.8" font-family="Times,serif" font-size="14.00">DeclRefExpr</text>
</g>
<!-- Node0x555d28fb6fd0&#45;&gt;Node0x555d28fb6f88 -->
<g id="edge17" class="edge"><title>Node0x555d28fb6fd0&#45;&gt;Node0x555d28fb6f88</title>
<path fill="none" stroke="black" d="M734.428,-146.313C727.862,-137.679 719.781,-127.055 712.54,-117.534"/>
<polygon fill="black" stroke="black" points="715.291,-115.37 706.452,-109.529 709.719,-119.607 715.291,-115.37"/>
</g>
<!-- Node0x555d28fb6fb0 -->
<g id="node19" class="node"><title>Node0x555d28fb6fb0</title>
<polygon fill="none" stroke="black" points="756,-73.5 756,-109.5 847,-109.5 847,-73.5 756,-73.5"/>
<text text-anchor="middle" x="801.5" y="-87.8" font-family="Times,serif" font-size="14.00">IntegerLiteral</text>
</g>
<!-- Node0x555d28fb6fd0&#45;&gt;Node0x555d28fb6fb0 -->
<g id="edge18" class="edge"><title>Node0x555d28fb6fd0&#45;&gt;Node0x555d28fb6fb0</title>
<path fill="none" stroke="black" d="M760.572,-146.313C767.138,-137.679 775.219,-127.055 782.46,-117.534"/>
<polygon fill="black" stroke="black" points="785.281,-119.607 788.548,-109.529 779.709,-115.37 785.281,-119.607"/>
</g>
<!-- Node0x555d28fb6ef8 -->
<g id="node17" class="node"><title>Node0x555d28fb6ef8</title>
<polygon fill="none" stroke="black" points="381.5,-0.5 381.5,-36.5 469.5,-36.5 469.5,-0.5 381.5,-0.5"/>
<text text-anchor="middle" x="425.5" y="-14.8" font-family="Times,serif" font-size="14.00">DeclRefExpr</text>
</g>
<!-- Node0x555d28fb6f40&#45;&gt;Node0x555d28fb6ef8 -->
<g id="edge16" class="edge"><title>Node0x555d28fb6f40&#45;&gt;Node0x555d28fb6ef8</title>
<path fill="none" stroke="black" d="M425.5,-73.3129C425.5,-65.2895 425.5,-55.5475 425.5,-46.5691"/>
<polygon fill="black" stroke="black" points="429,-46.5288 425.5,-36.5288 422,-46.5289 429,-46.5288"/>
</g>
</g>
</svg>
