<?xml version="1.0" encoding="UTF-8" standalone="no"?>
<!DOCTYPE svg PUBLIC "-//W3C//DTD SVG 1.1//EN"
 "http://www.w3.org/Graphics/SVG/1.1/DTD/svg11.dtd">
<!-- Generated by graphviz version 2.38.0 (20140413.2041)
 -->
<!-- Title: unnamed Pages: 1 -->
<svg width="370pt" height="600pt"
 viewBox="0.00 0.00 369.70 600.00" xmlns="http://www.w3.org/2000/svg" xmlns:xlink="http://www.w3.org/1999/xlink">
<g id="graph0" class="graph" transform="scale(1 1) rotate(0) translate(4 596)">
<title>unnamed</title>
<polygon fill="white" stroke="none" points="-4,4 -4,-596 365.701,-596 365.701,4 -4,4"/>
<!-- Node0x55ea916146f0 -->
<g id="node1" class="node"><title>Node0x55ea916146f0</title>
<polygon fill="none" stroke="black" points="273.694,-9 273.694,-45 358.694,-45 358.694,-9 273.694,-9"/>
<text text-anchor="start" x="281.694" y="-23.3" font-family="Times,serif" font-size="14.00">[B0 (EXIT)]</text>
</g>
<!-- Node0x55ea916147c8 -->
<g id="node2" class="node"><title>Node0x55ea916147c8</title>
<polygon fill="none" stroke="black" points="25.1939,-0.5 25.1939,-53.5 111.194,-53.5 111.194,-0.5 25.1939,-0.5"/>
<text text-anchor="start" x="33.1939" y="-38.3" font-family="Times,serif" font-size="14.00">[B1]</text>
<text text-anchor="start" x="33.1939" y="-23.3" font-family="Times,serif" font-size="14.00"> 1: i</text>
<text text-anchor="start" x="33.1939" y="-8.3" font-family="Times,serif" font-size="14.00"> 2: ++[B1.1]</text>
</g>
<!-- Node0x55ea91614b48 -->
<g id="node3" class="node"><title>Node0x55ea91614b48</title>
<polygon fill="none" stroke="black" points="28.1939,-330.5 28.1939,-428.5 330.194,-428.5 330.194,-330.5 28.1939,-330.5"/>
<text text-anchor="start" x="36.1939" y="-413.3" font-family="Times,serif" font-size="14.00">[B5]</text>
<text text-anchor="start" x="36.1939" y="-398.3" font-family="Times,serif" font-size="14.00"> 1: i</text>
<text text-anchor="start" x="36.1939" y="-383.3" font-family="Times,serif" font-size="14.00"> 2: [B5.1] (ImplicitCastExpr, LValueToRValue, int)</text>
<text text-anchor="start" x="36.1939" y="-368.3" font-family="Times,serif" font-size="14.00"> 3: 12</text>
<text text-anchor="start" x="36.1939" y="-353.3" font-family="Times,serif" font-size="14.00"> 4: [B5.2] &lt; [B5.3]</text>
<text text-anchor="start" x="36.1939" y="-338.3" font-family="Times,serif" font-size="14.00"> T: for (...; [B5.4]; ...)</text>
</g>
<!-- Node0x55ea916147c8&#45;&gt;Node0x55ea91614b48 -->
<g id="edge1" class="edge"><title>Node0x55ea916147c8&#45;&gt;Node0x55ea91614b48</title>
<path fill="none" stroke="black" d="M52.6885,-53.5204C24.5544,-103.451 -27.8341,-215.98 19.1939,-294 26.043,-305.363 34.987,-315.276 45.1484,-323.909"/>
<polygon fill="black" stroke="black" points="43.1358,-326.781 53.1415,-330.264 47.4921,-321.301 43.1358,-326.781"/>
</g>
<!-- Node0x55ea91614b48&#45;&gt;Node0x55ea916146f0 -->
<g id="edge7" class="edge"><title>Node0x55ea91614b48&#45;&gt;Node0x55ea916146f0</title>
<path fill="none" stroke="black" d="M305.246,-330.264C318.705,-320.236 330.599,-308.259 339.194,-294 385.407,-217.332 348.805,-104.956 328.038,-54.3808"/>
<polygon fill="black" stroke="black" points="331.24,-52.9682 324.125,-45.1187 324.792,-55.6925 331.24,-52.9682"/>
</g>
<!-- Node0x55ea91614a50 -->
<g id="node6" class="node"><title>Node0x55ea91614a50</title>
<polygon fill="none" stroke="black" points="28.1939,-195.5 28.1939,-293.5 330.194,-293.5 330.194,-195.5 28.1939,-195.5"/>
<text text-anchor="start" x="36.1939" y="-278.3" font-family="Times,serif" font-size="14.00">[B4]</text>
<text text-anchor="start" x="36.1939" y="-263.3" font-family="Times,serif" font-size="14.00"> 1: i</text>
<text text-anchor="start" x="36.1939" y="-248.3" font-family="Times,serif" font-size="14.00"> 2: [B4.1] (ImplicitCastExpr, LValueToRValue, int)</text>
<text text-anchor="start" x="36.1939" y="-233.3" font-family="Times,serif" font-size="14.00"> 3: 6</text>
<text text-anchor="start" x="36.1939" y="-218.3" font-family="Times,serif" font-size="14.00"> 4: [B4.2] == [B4.3]</text>
<text text-anchor="start" x="36.1939" y="-203.3" font-family="Times,serif" font-size="14.00"> T: if [B4.4]</text>
</g>
<!-- Node0x55ea91614b48&#45;&gt;Node0x55ea91614a50 -->
<g id="edge6" class="edge"><title>Node0x55ea91614b48&#45;&gt;Node0x55ea91614a50</title>
<path fill="none" stroke="black" d="M179.194,-330.484C179.194,-321.927 179.194,-312.927 179.194,-304.114"/>
<polygon fill="black" stroke="black" points="182.694,-303.892 179.194,-293.892 175.694,-303.892 182.694,-303.892"/>
</g>
<!-- Node0x55ea916148a0 -->
<g id="node4" class="node"><title>Node0x55ea916148a0</title>
<polygon fill="none" stroke="black" points="70.6939,-90.5 70.6939,-158.5 199.694,-158.5 199.694,-90.5 70.6939,-90.5"/>
<text text-anchor="start" x="78.6939" y="-143.3" font-family="Times,serif" font-size="14.00">[B2]</text>
<text text-anchor="start" x="78.6939" y="-128.3" font-family="Times,serif" font-size="14.00"> 1: i</text>
<text text-anchor="start" x="78.6939" y="-113.3" font-family="Times,serif" font-size="14.00"> 2: 3</text>
<text text-anchor="start" x="78.6939" y="-98.3" font-family="Times,serif" font-size="14.00"> 3: [B2.1] += [B2.2]</text>
</g>
<!-- Node0x55ea916148a0&#45;&gt;Node0x55ea916147c8 -->
<g id="edge2" class="edge"><title>Node0x55ea916148a0&#45;&gt;Node0x55ea916147c8</title>
<path fill="none" stroke="black" d="M111.949,-90.3668C105.467,-81.1276 98.4179,-71.0805 91.9093,-61.8033"/>
<polygon fill="black" stroke="black" points="94.7241,-59.7213 86.1156,-53.5452 88.9937,-63.7416 94.7241,-59.7213"/>
</g>
<!-- Node0x55ea91614978 -->
<g id="node5" class="node"><title>Node0x55ea91614978</title>
<polygon fill="none" stroke="black" points="239.194,-105.5 239.194,-143.5 309.194,-143.5 309.194,-105.5 239.194,-105.5"/>
<text text-anchor="start" x="247.194" y="-128.3" font-family="Times,serif" font-size="14.00">[B3]</text>
<text text-anchor="start" x="247.194" y="-113.3" font-family="Times,serif" font-size="14.00"> T: break;</text>
</g>
<!-- Node0x55ea91614978&#45;&gt;Node0x55ea916146f0 -->
<g id="edge3" class="edge"><title>Node0x55ea91614978&#45;&gt;Node0x55ea916146f0</title>
<path fill="none" stroke="black" d="M282.292,-105.087C288.609,-90.7232 297.469,-70.5777 304.547,-54.4832"/>
<polygon fill="black" stroke="black" points="307.863,-55.6364 308.685,-45.0735 301.455,-52.8183 307.863,-55.6364"/>
</g>
<!-- Node0x55ea91614a50&#45;&gt;Node0x55ea916148a0 -->
<g id="edge5" class="edge"><title>Node0x55ea91614a50&#45;&gt;Node0x55ea916148a0</title>
<path fill="none" stroke="black" d="M161.17,-195.164C157.86,-186.286 154.425,-177.074 151.179,-168.369"/>
<polygon fill="black" stroke="black" points="154.385,-166.949 147.611,-158.802 147.826,-169.394 154.385,-166.949"/>
</g>
<!-- Node0x55ea91614a50&#45;&gt;Node0x55ea91614978 -->
<g id="edge4" class="edge"><title>Node0x55ea91614a50&#45;&gt;Node0x55ea91614978</title>
<path fill="none" stroke="black" d="M218.108,-195.164C230.13,-180.232 242.91,-164.357 253.23,-151.539"/>
<polygon fill="black" stroke="black" points="256.079,-153.582 259.624,-143.597 250.627,-149.192 256.079,-153.582"/>
</g>
<!-- Node0x55ea91614c60 -->
<g id="node7" class="node"><title>Node0x55ea91614c60</title>
<polygon fill="none" stroke="black" points="137.694,-465.5 137.694,-518.5 220.694,-518.5 220.694,-465.5 137.694,-465.5"/>
<text text-anchor="start" x="145.694" y="-503.3" font-family="Times,serif" font-size="14.00">[B6]</text>
<text text-anchor="start" x="145.694" y="-488.3" font-family="Times,serif" font-size="14.00"> 1: 0</text>
<text text-anchor="start" x="145.694" y="-473.3" font-family="Times,serif" font-size="14.00"> 2: int i = 0;</text>
</g>
<!-- Node0x55ea91614c60&#45;&gt;Node0x55ea91614b48 -->
<g id="edge8" class="edge"><title>Node0x55ea91614c60&#45;&gt;Node0x55ea91614b48</title>
<path fill="none" stroke="black" d="M179.194,-465.371C179.194,-457.318 179.194,-448.073 179.194,-438.714"/>
<polygon fill="black" stroke="black" points="182.694,-438.565 179.194,-428.565 175.694,-438.565 182.694,-438.565"/>
</g>
<!-- Node0x55ea91614d58 -->
<g id="node8" class="node"><title>Node0x55ea91614d58</title>
<polygon fill="none" stroke="black" points="129.694,-555.5 129.694,-591.5 228.694,-591.5 228.694,-555.5 129.694,-555.5"/>
<text text-anchor="start" x="137.694" y="-569.8" font-family="Times,serif" font-size="14.00">[B7 (ENTRY)]</text>
</g>
<!-- Node0x55ea91614d58&#45;&gt;Node0x55ea91614c60 -->
<g id="edge9" class="edge"><title>Node0x55ea91614d58&#45;&gt;Node0x55ea91614c60</title>
<path fill="none" stroke="black" d="M179.194,-555.25C179.194,-547.486 179.194,-538.014 179.194,-528.825"/>
<polygon fill="black" stroke="black" points="182.694,-528.676 179.194,-518.676 175.694,-528.676 182.694,-528.676"/>
</g>
</g>
</svg>
